<?xml version="1.0" encoding="utf-8"?>
<!-- Generator: Adobe Illustrator 23.0.3, SVG Export Plug-In . SVG Version: 6.00 Build 0)  -->
<svg version="1.1" id="Layer_1" xmlns="http://www.w3.org/2000/svg" xmlns:xlink="http://www.w3.org/1999/xlink" x="0px" y="0px"
	 viewBox="0 0 1080 1080" style="enable-background:new 0 0 1080 1080;" xml:space="preserve">
<style type="text/css">
	.st0{fill:#E4212A;}
	.st1{fill:#EE1F40;}
</style>
<g>
	<path class="st0" d="M895.98,423.37c-5.24,55.6-23.06,106.6-51.93,154.12C752.61,727.88,661.31,878.33,570,1028.82
		c-6.99,11.52-14.92,21.14-30.2,19.85V568.33c4.93-0.53,9.86-1.17,14.79-1.57c49.5-4.13,89.94-25.62,122.37-63.05
		c64.07-73.95,51.36-194.68-26.33-254.4c-32.94-25.34-69.97-37.3-110.83-39.49c0-59.54-0.02-119.07-0.02-178.61h31.81
		c9.46,3.94,19.74,3.52,29.6,5.42c126.19,24.41,215.33,96.15,267.88,212.5C893.93,304.18,901.69,362.88,895.98,423.37z"/>
	<path class="st1" d="M418.14,520c33.76,32.45,75.28,46.91,121.66,48.33v480.34c-12.89,0.29-20.45-7.34-26.64-17.49
		c-34.4-56.51-68.98-112.91-103.44-169.37c-60.29-98.82-121.24-197.25-180.56-296.65c-36.39-61-50.94-127.87-45.98-198.93
		c7.1-102.09,50.43-186.08,128.03-251.92c51.29-43.53,111.07-69.77,177.97-79.21c6.3-0.88,12.98-0.46,18.79-3.89h31.81
		c0,59.54,0.02,119.07,0.02,178.61c-15.56,0.82-31.13,2.06-46.1,6.57c-67.3,20.27-111.62,64.16-127.7,132.56
		C350.47,414.99,369.17,472.89,418.14,520z"/>
</g>
</svg>
